# xmcd
#
# Track frame offsets:
#	150
#	23371
#	36777
#	49002
#	66756
#	84594
#	101303
#	117851
#	137636
#	165566
#	186200
#	206714
#	230983
#	250247
#	274436
#	282537
#
# Disc length: 4122 seconds
#
# Revision: 2
# Processed by: cddbd v1.5.2PL0 Copyright (c) Steve Scherf et al.
# Submitted via: EasyCDDAExtractor 6.2.0.3
#
DISCID=e5101810
DTITLE=Various Artist - club delicious volume 3 cd 1
DYEAR=2000
DGENRE=Dance
TTITLE0=Spiller - groove jet if this ain´t love
TTITLE1=Afro Medusa -  pasilda
TTITLE2=ATFC - bad habits
TTITLE3=Loudhouse - show u love
TTITLE4=Robbie Rivera - bang
TTITLE5=Steve Castro - hammertime
TTITLE6=Ultra Nate - desire
TTITLE7=Trevor and Simon - hands up
TTITLE8=Planet perfecto - bullet in the gun 2000
TTITLE9=Loop 35 - llay down the beat
TTITLE10=Groovahoolics - wake up the funk
TTITLE11=Sabotage - return to ibiza
TTITLE12=Bassline pumpers - the frontdoor
TTITLE13=E-craig - dutch drum attack
TTITLE14=G-Spott - melo g
TTITLE15=Liquid and Silvy - turn the tide
EXTD=YEAR: 2000
EXTT0=
EXTT1=
EXTT2=
EXTT3=
EXTT4=
EXTT5=
EXTT6=
EXTT7=
EXTT8=
EXTT9=
EXTT10=
EXTT11=
EXTT12=
EXTT13=
EXTT14=
EXTT15=
PLAYORDER=
